# Blender 3.4.1
# www.blender.org
mtllib projectile_rapidfire.mtl
o Sphere
v 0.000000 0.115881 -0.356646
v 0.000000 0.000000 -0.375000
v 0.000000 -0.115881 -0.356646
v 0.000000 -0.220419 -0.303381
v 0.000000 -0.303381 -0.220419
v 0.000000 -0.356646 -0.115881
v 0.047133 0.356646 -0.105863
v 0.089653 0.303381 -0.201363
v 0.123396 0.220419 -0.277153
v 0.145061 0.115881 -0.325813
v 0.152526 0.000000 -0.342580
v 0.145061 -0.115881 -0.325813
v 0.123396 -0.220419 -0.277153
v 0.089653 -0.303381 -0.201363
v 0.047133 -0.356646 -0.105863
v 0.086117 0.356646 -0.077540
v 0.163804 0.303381 -0.147489
v 0.225456 0.220419 -0.203002
v 0.265040 0.115881 -0.238643
v 0.278679 0.000000 -0.250924
v 0.265040 -0.115881 -0.238643
v 0.225456 -0.220419 -0.203002
v 0.163804 -0.303381 -0.147489
v 0.086117 -0.356646 -0.077540
v 0.110210 0.356646 -0.035809
v 0.209631 0.303381 -0.068113
v 0.288533 0.220419 -0.093750
v 0.339191 0.115881 -0.110210
v 0.356646 0.000000 -0.115881
v 0.339191 -0.115881 -0.110210
v 0.288533 -0.220419 -0.093750
v 0.209631 -0.303381 -0.068113
v 0.110210 -0.356646 -0.035809
v 0.115247 0.356646 0.012113
v 0.219212 0.303381 0.023040
v 0.301719 0.220419 0.031712
v 0.354692 0.115881 0.037280
v 0.372946 0.000000 0.039198
v 0.354692 -0.115881 0.037280
v 0.301719 -0.220419 0.031712
v 0.219212 -0.303381 0.023040
v 0.115247 -0.356646 0.012113
v 0.100356 0.356646 0.057941
v 0.190889 0.303381 0.110210
v 0.262736 0.220419 0.151691
v 0.308865 0.115881 0.178323
v 0.324759 0.000000 0.187500
v 0.308865 -0.115881 0.178323
v 0.262736 -0.220419 0.151691
v 0.190889 -0.303381 0.110210
v 0.100356 -0.356646 0.057941
v 0.068113 0.356646 0.093750
v 0.129559 0.303381 0.178323
v 0.178323 0.220419 0.245441
v 0.209631 0.115881 0.288533
v 0.220419 0.000000 0.303381
v 0.209631 -0.115881 0.288533
v 0.178323 -0.220419 0.245441
v 0.129559 -0.303381 0.178323
v 0.068113 -0.356646 0.093750
v 0.024093 0.356646 0.113349
v 0.045828 0.303381 0.215603
v 0.063077 0.220419 0.296752
v 0.074151 0.115881 0.348853
v 0.077967 0.000000 0.366805
v 0.074151 -0.115881 0.348853
v 0.063077 -0.220419 0.296752
v 0.045828 -0.303381 0.215603
v 0.024093 -0.356646 0.113349
v -0.024093 0.356646 0.113349
v -0.045828 0.303381 0.215603
v -0.063077 0.220419 0.296752
v -0.074151 0.115881 0.348853
v -0.077967 0.000000 0.366805
v -0.074151 -0.115881 0.348853
v -0.063077 -0.220419 0.296752
v -0.045828 -0.303381 0.215603
v -0.024093 -0.356646 0.113349
v 0.000000 -0.375000 0.000000
v 0.000000 0.375000 0.000000
v -0.068113 0.356646 0.093750
v -0.129559 0.303381 0.178323
v -0.178323 0.220419 0.245441
v -0.209631 0.115881 0.288533
v -0.220419 0.000000 0.303381
v -0.209631 -0.115881 0.288533
v -0.178323 -0.220419 0.245441
v -0.129559 -0.303381 0.178323
v -0.068113 -0.356646 0.093750
v -0.100356 0.356646 0.057941
v -0.190889 0.303381 0.110210
v -0.262736 0.220419 0.151691
v -0.308865 0.115881 0.178323
v -0.324759 0.000000 0.187500
v -0.308865 -0.115881 0.178323
v -0.262736 -0.220419 0.151691
v -0.190889 -0.303381 0.110210
v -0.100356 -0.356646 0.057941
v -0.115247 0.356646 0.012113
v -0.219212 0.303381 0.023040
v -0.301719 0.220419 0.031712
v -0.354692 0.115881 0.037280
v -0.372946 0.000000 0.039198
v -0.354692 -0.115881 0.037280
v -0.301719 -0.220419 0.031712
v -0.219212 -0.303381 0.023040
v -0.115247 -0.356646 0.012113
v -0.110210 0.356646 -0.035809
v -0.209631 0.303381 -0.068113
v -0.288533 0.220419 -0.093750
v -0.339191 0.115881 -0.110210
v -0.356646 0.000000 -0.115881
v -0.339191 -0.115881 -0.110210
v -0.288533 -0.220419 -0.093750
v -0.209631 -0.303381 -0.068113
v -0.110210 -0.356646 -0.035809
v -0.086117 0.356646 -0.077540
v -0.163804 0.303381 -0.147489
v -0.225456 0.220419 -0.203002
v -0.265040 0.115881 -0.238643
v -0.278679 0.000000 -0.250924
v -0.265040 -0.115881 -0.238643
v -0.225456 -0.220419 -0.203002
v -0.163804 -0.303381 -0.147489
v -0.086117 -0.356646 -0.077540
v -0.047133 0.356646 -0.105863
v -0.089653 0.303381 -0.201363
v -0.123396 0.220419 -0.277153
v -0.145061 0.115881 -0.325812
v -0.152526 0.000000 -0.342579
v -0.145061 -0.115881 -0.325812
v -0.123396 -0.220419 -0.277153
v -0.089653 -0.303381 -0.201363
v -0.047133 -0.356646 -0.105863
v 0.000000 0.356646 -0.115881
v 0.000000 0.303381 -0.220419
v 0.000000 0.220419 -0.303381
vn -0.0000 0.9448 -0.3276
vn -0.0000 1.0000 -0.0000
vn 0.1333 0.9448 -0.2993
vn -0.0000 -0.5781 -0.8160
vn 0.2445 -0.7992 -0.5491
vn -0.0000 -0.7992 -0.6011
vn -0.0000 0.3031 -0.9530
vn 0.4067 -0.0000 -0.9135
vn -0.0000 -0.0000 -1.0000
vn -0.0000 0.7992 -0.6011
vn 0.2445 0.7992 -0.5491
vn -0.0000 -0.9448 -0.3276
vn 0.1333 -0.9448 -0.2993
vn 0.3876 -0.3031 -0.8706
vn -0.0000 -0.3031 -0.9530
vn -0.0000 0.5781 -0.8160
vn 0.3319 0.5781 -0.7454
vn -0.0000 -1.0000 -0.0000
vn 0.3319 -0.5781 -0.7454
vn 0.3876 0.3031 -0.8706
vn 0.4467 -0.7992 -0.4022
vn 0.7431 -0.0000 -0.6691
vn 0.4467 0.7992 -0.4022
vn 0.2435 -0.9448 -0.2192
vn 0.7082 -0.3031 -0.6377
vn 0.6064 0.5781 -0.5460
vn 0.6064 -0.5781 -0.5460
vn 0.7082 0.3031 -0.6377
vn 0.2435 0.9448 -0.2192
vn 0.9063 0.3031 -0.2945
vn 0.3116 0.9448 -0.1012
vn 0.7760 -0.5781 -0.2521
vn 0.5717 -0.7992 -0.1857
vn 0.9511 -0.0000 -0.3090
vn 0.5717 0.7992 -0.1857
vn 0.3116 -0.9448 -0.1012
vn 0.9063 -0.3031 -0.2945
vn 0.7760 0.5781 -0.2521
vn 0.8115 -0.5781 0.0853
vn 0.9477 0.3031 0.0996
vn 0.3258 0.9448 0.0342
vn 0.5978 -0.7992 0.0628
vn 0.9945 -0.0000 0.1045
vn 0.5978 0.7992 0.0628
vn 0.3258 -0.9448 0.0342
vn 0.9477 -0.3031 0.0996
vn 0.8115 0.5781 0.0853
vn 0.7066 0.5781 0.4080
vn 0.2837 -0.9448 0.1638
vn 0.7066 -0.5781 0.4080
vn 0.8253 0.3031 0.4765
vn 0.2837 0.9448 0.1638
vn 0.5205 -0.7992 0.3005
vn 0.8660 -0.0000 0.5000
vn 0.5205 0.7992 0.3005
vn 0.8253 -0.3031 0.4765
vn 0.1926 -0.9448 0.2651
vn 0.5601 -0.3031 0.7710
vn 0.4796 0.5781 0.6601
vn 0.4796 -0.5781 0.6601
vn 0.5601 0.3031 0.7710
vn 0.1926 0.9448 0.2651
vn 0.3533 -0.7992 0.4863
vn 0.5878 -0.0000 0.8090
vn 0.3533 0.7992 0.4863
vn 0.2079 -0.0000 0.9781
vn 0.1250 0.7992 0.5879
vn 0.1250 -0.7992 0.5879
vn 0.0681 -0.9448 0.3205
vn 0.1981 -0.3031 0.9321
vn 0.1696 0.5781 0.7981
vn 0.1696 -0.5781 0.7981
vn 0.1981 0.3031 0.9321
vn 0.0681 0.9448 0.3205
vn -0.0681 0.9448 0.3205
vn -0.1250 -0.7992 0.5879
vn -0.2079 -0.0000 0.9781
vn -0.1250 0.7992 0.5879
vn -0.0681 -0.9448 0.3205
vn -0.1981 -0.3031 0.9321
vn -0.1696 0.5781 0.7981
vn -0.1696 -0.5781 0.7981
vn -0.1981 0.3031 0.9321
vn -0.5601 0.3031 0.7710
vn -0.1926 0.9448 0.2651
vn -0.3533 -0.7992 0.4863
vn -0.5878 -0.0000 0.8090
vn -0.3533 0.7992 0.4863
vn -0.1926 -0.9448 0.2651
vn -0.5601 -0.3031 0.7710
vn -0.4796 0.5781 0.6601
vn -0.4796 -0.5781 0.6601
vn -0.2837 -0.9448 0.1638
vn -0.8253 -0.3031 0.4765
vn -0.7066 -0.5781 0.4080
vn -0.8253 0.3031 0.4765
vn -0.2837 0.9448 0.1638
vn -0.5205 -0.7992 0.3005
vn -0.8660 -0.0000 0.5000
vn -0.5205 0.7992 0.3005
vn -0.7066 0.5781 0.4080
vn -0.9477 -0.3031 0.0996
vn -0.8115 0.5781 0.0853
vn -0.3258 -0.9448 0.0342
vn -0.8115 -0.5781 0.0853
vn -0.9477 0.3031 0.0996
vn -0.3258 0.9448 0.0342
vn -0.5978 -0.7992 0.0628
vn -0.9945 -0.0000 0.1045
vn -0.5978 0.7992 0.0628
vn -0.5717 0.7992 -0.1857
vn -0.3116 -0.9448 -0.1012
vn -0.9063 -0.3031 -0.2945
vn -0.7760 0.5781 -0.2521
vn -0.7760 -0.5781 -0.2521
vn -0.9063 0.3031 -0.2945
vn -0.3116 0.9448 -0.1012
vn -0.5717 -0.7992 -0.1857
vn -0.9511 -0.0000 -0.3090
vn -0.7082 0.3031 -0.6377
vn -0.7431 -0.0000 -0.6691
vn -0.4467 0.7992 -0.4022
vn -0.2435 -0.9448 -0.2192
vn -0.7082 -0.3031 -0.6377
vn -0.6064 0.5781 -0.5460
vn -0.6064 -0.5781 -0.5460
vn -0.2435 0.9448 -0.2192
vn -0.4467 -0.7992 -0.4022
vn -0.1333 0.9448 -0.2993
vn -0.2445 -0.7992 -0.5491
vn -0.3876 0.3031 -0.8706
vn -0.4067 -0.0000 -0.9135
vn -0.2445 0.7992 -0.5491
vn -0.1333 -0.9448 -0.2993
vn -0.3876 -0.3031 -0.8706
vn -0.3319 0.5781 -0.7454
vn -0.3319 -0.5781 -0.7454
vt 0.733333 0.600000
vt 0.733333 0.500000
vt 0.733333 0.400000
vt 0.733333 0.300000
vt 0.733333 0.200000
vt 0.733333 0.100000
vt 0.666667 0.900000
vt 0.666667 0.800000
vt 0.666667 0.700000
vt 0.666667 0.600000
vt 0.666667 0.500000
vt 0.666667 0.400000
vt 0.666667 0.300000
vt 0.666667 0.200000
vt 0.666667 0.100000
vt 0.600000 0.900000
vt 0.600000 0.800000
vt 0.600000 0.700000
vt 0.600000 0.600000
vt 0.600000 0.500000
vt 0.600000 0.400000
vt 0.600000 0.300000
vt 0.600000 0.200000
vt 0.600000 0.100000
vt 0.533333 0.900000
vt 0.533333 0.800000
vt 0.533333 0.700000
vt 0.533333 0.600000
vt 0.533333 0.500000
vt 0.533333 0.400000
vt 0.533333 0.300000
vt 0.533333 0.200000
vt 0.533333 0.100000
vt 0.466667 0.900000
vt 0.466667 0.800000
vt 0.466667 0.700000
vt 0.466667 0.600000
vt 0.466667 0.500000
vt 0.466667 0.400000
vt 0.466667 0.300000
vt 0.466667 0.200000
vt 0.466667 0.100000
vt 0.400000 0.900000
vt 0.400000 0.800000
vt 0.400000 0.700000
vt 0.400000 0.600000
vt 0.400000 0.500000
vt 0.400000 0.400000
vt 0.400000 0.300000
vt 0.400000 0.200000
vt 0.400000 0.100000
vt 0.333333 0.900000
vt 0.333333 0.800000
vt 0.333333 0.700000
vt 0.333333 0.600000
vt 0.333333 0.500000
vt 0.333333 0.400000
vt 0.333333 0.300000
vt 0.333333 0.200000
vt 0.333333 0.100000
vt 0.266667 0.900000
vt 0.266667 0.800000
vt 0.266667 0.700000
vt 0.266667 0.600000
vt 0.266667 0.500000
vt 0.266667 0.400000
vt 0.266667 0.300000
vt 0.266667 0.200000
vt 0.266667 0.100000
vt 0.200000 0.900000
vt 0.200000 0.800000
vt 0.200000 0.700000
vt 0.200000 0.600000
vt 0.200000 0.500000
vt 0.200000 0.400000
vt 0.200000 0.300000
vt 0.200000 0.200000
vt 0.200000 0.100000
vt 0.700000 0.000000
vt 0.633333 0.000000
vt 0.566667 0.000000
vt 0.500000 0.000000
vt 0.433333 0.000000
vt 0.366667 0.000000
vt 0.300000 0.000000
vt 0.233333 0.000000
vt 0.166667 0.000000
vt 0.100000 0.000000
vt 0.033333 0.000000
vt 0.966667 0.000000
vt 0.900000 0.000000
vt 0.833333 0.000000
vt 0.766667 0.000000
vt 0.700000 1.000000
vt 0.633333 1.000000
vt 0.566667 1.000000
vt 0.500000 1.000000
vt 0.433333 1.000000
vt 0.366667 1.000000
vt 0.300000 1.000000
vt 0.233333 1.000000
vt 0.166667 1.000000
vt 0.100000 1.000000
vt 0.033333 1.000000
vt 0.966667 1.000000
vt 0.900000 1.000000
vt 0.833333 1.000000
vt 0.766667 1.000000
vt 0.133333 0.900000
vt 0.133333 0.800000
vt 0.133333 0.700000
vt 0.133333 0.600000
vt 0.133333 0.500000
vt 0.133333 0.400000
vt 0.133333 0.300000
vt 0.133333 0.200000
vt 0.133333 0.100000
vt 0.066667 0.900000
vt 0.066667 0.800000
vt 0.066667 0.700000
vt 0.066667 0.600000
vt 0.066667 0.500000
vt 0.066667 0.400000
vt 0.066667 0.300000
vt 0.066667 0.200000
vt 0.066667 0.100000
vt 0.000000 0.900000
vt 1.000000 0.900000
vt 0.000000 0.800000
vt 1.000000 0.800000
vt 0.000000 0.700000
vt 1.000000 0.700000
vt 0.000000 0.600000
vt 1.000000 0.600000
vt 0.000000 0.500000
vt 1.000000 0.500000
vt 0.000000 0.400000
vt 1.000000 0.400000
vt 0.000000 0.300000
vt 1.000000 0.300000
vt 0.000000 0.200000
vt 1.000000 0.200000
vt 1.000000 0.100000
vt 0.000000 0.100000
vt 0.933333 0.900000
vt 0.933333 0.800000
vt 0.933333 0.700000
vt 0.933333 0.600000
vt 0.933333 0.500000
vt 0.933333 0.400000
vt 0.933333 0.300000
vt 0.933333 0.200000
vt 0.933333 0.100000
vt 0.866667 0.900000
vt 0.866667 0.800000
vt 0.866667 0.700000
vt 0.866667 0.600000
vt 0.866667 0.500000
vt 0.866667 0.400000
vt 0.866667 0.300000
vt 0.866667 0.200000
vt 0.866667 0.100000
vt 0.800000 0.900000
vt 0.800000 0.800000
vt 0.800000 0.700000
vt 0.800000 0.600000
vt 0.800000 0.500000
vt 0.800000 0.400000
vt 0.800000 0.300000
vt 0.800000 0.200000
vt 0.800000 0.100000
vt 0.733333 0.900000
vt 0.733333 0.800000
vt 0.733333 0.700000
s 1
g Sphere_Material.001
usemtl Material.001
f 135/172/1 80/94/2 7/7/3
f 4/4/4 14/14/5 5/5/6
f 1/1/7 11/11/8 2/2/9
f 136/173/10 7/7/3 8/8/11
f 6/6/12 14/14/5 15/15/13
f 2/2/9 12/12/14 3/3/15
f 137/174/16 8/8/11 9/9/17
f 79/79/18 6/6/12 15/15/13
f 3/3/15 13/13/19 4/4/4
f 137/174/16 10/10/20 1/1/7
f 13/13/19 23/23/21 14/14/5
f 10/10/20 20/20/22 11/11/8
f 7/7/3 17/17/23 8/8/11
f 14/14/5 24/24/24 15/15/13
f 11/11/8 21/21/25 12/12/14
f 8/8/11 18/18/26 9/9/17
f 79/80/18 15/15/13 24/24/24
f 12/12/14 22/22/27 13/13/19
f 9/9/17 19/19/28 10/10/20
f 7/7/3 80/95/2 16/16/29
f 18/18/26 28/28/30 19/19/28
f 16/16/29 80/96/2 25/25/31
f 23/23/21 31/31/32 32/32/33
f 20/20/22 28/28/30 29/29/34
f 16/16/29 26/26/35 17/17/23
f 24/24/24 32/32/33 33/33/36
f 20/20/22 30/30/37 21/21/25
f 17/17/23 27/27/38 18/18/26
f 79/81/18 24/24/24 33/33/36
f 21/21/25 31/31/32 22/22/27
f 30/30/37 40/40/39 31/31/32
f 27/27/38 37/37/40 28/28/30
f 25/25/31 80/97/2 34/34/41
f 32/32/33 40/40/39 41/41/42
f 28/28/30 38/38/43 29/29/34
f 25/25/31 35/35/44 26/26/35
f 33/33/36 41/41/42 42/42/45
f 30/30/37 38/38/43 39/39/46
f 26/26/35 36/36/47 27/27/38
f 79/82/18 33/33/36 42/42/45
f 35/35/44 45/45/48 36/36/47
f 79/83/18 42/42/45 51/51/49
f 39/39/46 49/49/50 40/40/39
f 37/37/40 45/45/48 46/46/51
f 34/34/41 80/98/2 43/43/52
f 41/41/42 49/49/50 50/50/53
f 37/37/40 47/47/54 38/38/43
f 34/34/41 44/44/55 35/35/44
f 42/42/45 50/50/53 51/51/49
f 39/39/46 47/47/54 48/48/56
f 50/50/53 60/60/57 51/51/49
f 47/47/54 57/57/58 48/48/56
f 44/44/55 54/54/59 45/45/48
f 79/84/18 51/51/49 60/60/57
f 48/48/56 58/58/60 49/49/50
f 45/45/48 55/55/61 46/46/51
f 43/43/52 80/99/2 52/52/62
f 49/49/50 59/59/63 50/50/53
f 46/46/51 56/56/64 47/47/54
f 43/43/52 53/53/65 44/44/55
f 55/55/61 65/65/66 56/56/64
f 52/52/62 62/62/67 53/53/65
f 60/60/57 68/68/68 69/69/69
f 56/56/64 66/66/70 57/57/58
f 53/53/65 63/63/71 54/54/59
f 79/85/18 60/60/57 69/69/69
f 57/57/58 67/67/72 58/58/60
f 54/54/59 64/64/73 55/55/61
f 52/52/62 80/100/2 61/61/74
f 59/59/63 67/67/72 68/68/68
f 61/61/74 80/101/2 70/70/75
f 67/67/72 77/77/76 68/68/68
f 64/64/73 74/74/77 65/65/66
f 61/61/74 71/71/78 62/62/67
f 68/68/68 78/78/79 69/69/69
f 65/65/66 75/75/80 66/66/70
f 62/62/67 72/72/81 63/63/71
f 79/86/18 69/69/69 78/78/79
f 66/66/70 76/76/82 67/67/72
f 63/63/71 73/73/83 64/64/73
f 72/72/81 84/112/84 73/73/83
f 70/70/75 80/102/2 81/109/85
f 76/76/82 88/116/86 77/77/76
f 73/73/83 85/113/87 74/74/77
f 70/70/75 82/110/88 71/71/78
f 77/77/76 89/117/89 78/78/79
f 74/74/77 86/114/90 75/75/80
f 71/71/78 83/111/91 72/72/81
f 79/87/18 78/78/79 89/117/89
f 76/76/82 86/114/90 87/115/92
f 79/88/18 89/117/89 98/126/93
f 87/115/92 95/123/94 96/124/95
f 83/111/91 93/121/96 84/112/84
f 81/109/85 80/103/2 90/118/97
f 87/115/92 97/125/98 88/116/86
f 84/112/84 94/122/99 85/113/87
f 81/109/85 91/119/100 82/110/88
f 88/116/86 98/126/93 89/117/89
f 85/113/87 95/123/94 86/114/90
f 82/110/88 92/120/101 83/111/91
f 94/122/99 104/137/102 95/123/94
f 91/119/100 101/131/103 92/120/101
f 79/89/18 98/126/93 107/144/104
f 96/124/95 104/137/102 105/139/105
f 92/120/101 102/133/106 93/121/96
f 90/118/97 80/104/2 99/127/107
f 96/124/95 106/141/108 97/125/98
f 94/122/99 102/133/106 103/135/109
f 90/118/97 100/129/110 91/119/100
f 97/125/98 107/144/104 98/126/93
f 99/128/107 109/146/111 100/130/110
f 106/142/108 116/153/112 107/143/104
f 103/136/109 113/150/113 104/138/102
f 100/130/110 110/147/114 101/132/103
f 79/90/18 107/143/104 116/153/112
f 105/140/105 113/150/113 114/151/115
f 101/132/103 111/148/116 102/134/106
f 99/128/107 80/105/2 108/145/117
f 105/140/105 115/152/118 106/142/108
f 103/136/109 111/148/116 112/149/119
f 112/149/119 120/157/120 121/158/121
f 108/145/117 118/155/122 109/146/111
f 115/152/118 125/162/123 116/153/112
f 112/149/119 122/159/124 113/150/113
f 109/146/111 119/156/125 110/147/114
f 79/91/18 116/153/112 125/162/123
f 113/150/113 123/160/126 114/151/115
f 110/147/114 120/157/120 111/148/116
f 108/145/117 80/106/2 117/154/127
f 114/151/115 124/161/128 115/152/118
f 117/154/127 80/107/2 126/163/129
f 123/160/126 133/170/130 124/161/128
f 121/158/121 129/166/131 130/167/132
f 117/154/127 127/164/133 118/155/122
f 124/161/128 134/171/134 125/162/123
f 121/158/121 131/168/135 122/159/124
f 118/155/122 128/165/136 119/156/125
f 79/92/18 125/162/123 134/171/134
f 123/160/126 131/168/135 132/169/137
f 119/156/125 129/166/131 120/157/120
f 131/168/135 4/4/4 132/169/137
f 129/166/131 137/174/16 1/1/7
f 126/163/129 80/108/2 135/172/1
f 132/169/137 5/5/6 133/170/130
f 130/167/132 1/1/7 2/2/9
f 126/163/129 136/173/10 127/164/133
f 133/170/130 6/6/12 134/171/134
f 130/167/132 3/3/15 131/168/135
f 127/164/133 137/174/16 128/165/136
f 79/93/18 134/171/134 6/6/12
f 4/4/4 13/13/19 14/14/5
f 1/1/7 10/10/20 11/11/8
f 136/173/10 135/172/1 7/7/3
f 6/6/12 5/5/6 14/14/5
f 2/2/9 11/11/8 12/12/14
f 137/174/16 136/173/10 8/8/11
f 3/3/15 12/12/14 13/13/19
f 137/174/16 9/9/17 10/10/20
f 13/13/19 22/22/27 23/23/21
f 10/10/20 19/19/28 20/20/22
f 7/7/3 16/16/29 17/17/23
f 14/14/5 23/23/21 24/24/24
f 11/11/8 20/20/22 21/21/25
f 8/8/11 17/17/23 18/18/26
f 12/12/14 21/21/25 22/22/27
f 9/9/17 18/18/26 19/19/28
f 18/18/26 27/27/38 28/28/30
f 23/23/21 22/22/27 31/31/32
f 20/20/22 19/19/28 28/28/30
f 16/16/29 25/25/31 26/26/35
f 24/24/24 23/23/21 32/32/33
f 20/20/22 29/29/34 30/30/37
f 17/17/23 26/26/35 27/27/38
f 21/21/25 30/30/37 31/31/32
f 30/30/37 39/39/46 40/40/39
f 27/27/38 36/36/47 37/37/40
f 32/32/33 31/31/32 40/40/39
f 28/28/30 37/37/40 38/38/43
f 25/25/31 34/34/41 35/35/44
f 33/33/36 32/32/33 41/41/42
f 30/30/37 29/29/34 38/38/43
f 26/26/35 35/35/44 36/36/47
f 35/35/44 44/44/55 45/45/48
f 39/39/46 48/48/56 49/49/50
f 37/37/40 36/36/47 45/45/48
f 41/41/42 40/40/39 49/49/50
f 37/37/40 46/46/51 47/47/54
f 34/34/41 43/43/52 44/44/55
f 42/42/45 41/41/42 50/50/53
f 39/39/46 38/38/43 47/47/54
f 50/50/53 59/59/63 60/60/57
f 47/47/54 56/56/64 57/57/58
f 44/44/55 53/53/65 54/54/59
f 48/48/56 57/57/58 58/58/60
f 45/45/48 54/54/59 55/55/61
f 49/49/50 58/58/60 59/59/63
f 46/46/51 55/55/61 56/56/64
f 43/43/52 52/52/62 53/53/65
f 55/55/61 64/64/73 65/65/66
f 52/52/62 61/61/74 62/62/67
f 60/60/57 59/59/63 68/68/68
f 56/56/64 65/65/66 66/66/70
f 53/53/65 62/62/67 63/63/71
f 57/57/58 66/66/70 67/67/72
f 54/54/59 63/63/71 64/64/73
f 59/59/63 58/58/60 67/67/72
f 67/67/72 76/76/82 77/77/76
f 64/64/73 73/73/83 74/74/77
f 61/61/74 70/70/75 71/71/78
f 68/68/68 77/77/76 78/78/79
f 65/65/66 74/74/77 75/75/80
f 62/62/67 71/71/78 72/72/81
f 66/66/70 75/75/80 76/76/82
f 63/63/71 72/72/81 73/73/83
f 72/72/81 83/111/91 84/112/84
f 76/76/82 87/115/92 88/116/86
f 73/73/83 84/112/84 85/113/87
f 70/70/75 81/109/85 82/110/88
f 77/77/76 88/116/86 89/117/89
f 74/74/77 85/113/87 86/114/90
f 71/71/78 82/110/88 83/111/91
f 76/76/82 75/75/80 86/114/90
f 87/115/92 86/114/90 95/123/94
f 83/111/91 92/120/101 93/121/96
f 87/115/92 96/124/95 97/125/98
f 84/112/84 93/121/96 94/122/99
f 81/109/85 90/118/97 91/119/100
f 88/116/86 97/125/98 98/126/93
f 85/113/87 94/122/99 95/123/94
f 82/110/88 91/119/100 92/120/101
f 94/122/99 103/135/109 104/137/102
f 91/119/100 100/129/110 101/131/103
f 96/124/95 95/123/94 104/137/102
f 92/120/101 101/131/103 102/133/106
f 96/124/95 105/139/105 106/141/108
f 94/122/99 93/121/96 102/133/106
f 90/118/97 99/127/107 100/129/110
f 97/125/98 106/141/108 107/144/104
f 99/128/107 108/145/117 109/146/111
f 106/142/108 115/152/118 116/153/112
f 103/136/109 112/149/119 113/150/113
f 100/130/110 109/146/111 110/147/114
f 105/140/105 104/138/102 113/150/113
f 101/132/103 110/147/114 111/148/116
f 105/140/105 114/151/115 115/152/118
f 103/136/109 102/134/106 111/148/116
f 112/149/119 111/148/116 120/157/120
f 108/145/117 117/154/127 118/155/122
f 115/152/118 124/161/128 125/162/123
f 112/149/119 121/158/121 122/159/124
f 109/146/111 118/155/122 119/156/125
f 113/150/113 122/159/124 123/160/126
f 110/147/114 119/156/125 120/157/120
f 114/151/115 123/160/126 124/161/128
f 123/160/126 132/169/137 133/170/130
f 121/158/121 120/157/120 129/166/131
f 117/154/127 126/163/129 127/164/133
f 124/161/128 133/170/130 134/171/134
f 121/158/121 130/167/132 131/168/135
f 118/155/122 127/164/133 128/165/136
f 123/160/126 122/159/124 131/168/135
f 119/156/125 128/165/136 129/166/131
f 131/168/135 3/3/15 4/4/4
f 129/166/131 128/165/136 137/174/16
f 132/169/137 4/4/4 5/5/6
f 130/167/132 129/166/131 1/1/7
f 126/163/129 135/172/1 136/173/10
f 133/170/130 5/5/6 6/6/12
f 130/167/132 2/2/9 3/3/15
f 127/164/133 136/173/10 137/174/16
