# Blender 3.4.1
# www.blender.org
mtllib Test.mtl
o Cube
v 1.000000 1.000000 -1.000000
v 1.000000 -1.000000 -1.000000
v 1.000000 1.000000 1.000000
v 1.000000 -1.000000 1.000000
v -1.000000 1.000000 -1.000000
v -1.000000 -1.000000 -1.000000
v -1.000000 1.000000 1.000000
v -1.000000 -1.000000 1.000000
vn -0.0000 1.0000 -0.0000
vn -0.0000 -0.0000 1.0000
vn -1.0000 -0.0000 -0.0000
vn -0.0000 -1.0000 -0.0000
vn 1.0000 -0.0000 -0.0000
vn -0.0000 -0.0000 -1.0000
vt 0.000828 0.640650
vt 0.319083 0.638994
vt 0.640650 0.319083
vt 0.319083 0.320739
vt 0.638994 0.000828
vt 0.640650 0.000828
vt 0.000828 0.958905
vt 0.319083 0.319083
vt 0.000828 0.638994
vt 0.319083 0.000828
vt 0.638994 0.319083
vt 0.000828 0.320739
vt 0.319083 0.640650
vt 0.320739 0.638994
vt 0.958905 0.319083
vt 0.320739 0.000828
vt 0.958905 0.000828
vt 0.320739 0.320739
vt 0.319083 0.958905
vt 0.000828 0.319083
vt 0.638994 0.638994
vt 0.638994 0.320739
vt 0.000828 0.000828
vt 0.320739 0.319083
s 0
g Cube_Test_Baked_Texture
usemtl Test_Baked_Texture
f 5/13/1 3/7/1 1/1/1
f 3/8/2 8/23/2 4/10/2
f 7/21/3 6/18/3 8/22/3
f 2/5/4 8/24/4 6/16/4
f 1/2/5 4/12/5 2/4/5
f 5/15/6 2/6/6 6/17/6
f 5/13/1 7/19/1 3/7/1
f 3/8/2 7/20/2 8/23/2
f 7/21/3 5/14/3 6/18/3
f 2/5/4 4/11/4 8/24/4
f 1/2/5 3/9/5 4/12/5
f 5/15/6 1/3/6 2/6/6
o Sphere
v 0.000000 1.940685 -0.258819
v 0.000000 1.840785 -0.500000
v 0.000000 1.233578 -0.965926
v 0.000000 0.974759 -1.000000
v 0.079979 1.940685 -0.246152
v 0.154509 1.840785 -0.475528
v 0.218508 1.681866 -0.672499
v 0.267617 1.474759 -0.823639
v 0.298488 1.233578 -0.918650
v 0.309017 0.974759 -0.951057
v 0.152130 1.940685 -0.209389
v 0.293893 1.840785 -0.404509
v 0.415627 1.681866 -0.572061
v 0.509037 1.474759 -0.700629
v 0.567757 1.233578 -0.781450
v 0.587785 0.974759 -0.809017
v 0.209389 1.940685 -0.152130
v 0.404509 1.840785 -0.293893
v 0.572061 1.681866 -0.415627
v 0.700629 1.474759 -0.509037
v 0.781451 1.233578 -0.567757
v 0.809017 0.974759 -0.587785
v 0.246152 1.940685 -0.079979
v 0.475528 1.840785 -0.154508
v 0.672499 1.681866 -0.218508
v 0.823639 1.474759 -0.267617
v 0.918650 1.233578 -0.298488
v 0.951057 0.974759 -0.309017
v 0.258819 1.940685 0.000000
v 0.500000 1.840785 0.000000
v 0.707107 1.681866 0.000000
v 0.866026 1.474759 -0.000000
v 0.965926 1.233578 0.000000
v 1.000000 0.974759 0.000000
v 0.246152 1.940685 0.079980
v 0.475528 1.840785 0.154509
v 0.672499 1.681866 0.218508
v 0.823639 1.474759 0.267617
v 0.918650 1.233578 0.298488
v 0.951057 0.974759 0.309017
v 0.209389 1.940685 0.152130
v 0.404509 1.840785 0.293893
v 0.572061 1.681866 0.415627
v 0.700629 1.474759 0.509037
v 0.781451 1.233578 0.567757
v 0.809017 0.974759 0.587785
v 0.152130 1.940685 0.209389
v 0.293893 1.840785 0.404509
v 0.415627 1.681866 0.572061
v 0.509037 1.474759 0.700629
v 0.567757 1.233578 0.781451
v 0.587785 0.974759 0.809017
v 0.079979 1.940685 0.246152
v 0.154509 1.840785 0.475528
v 0.218508 1.681866 0.672499
v 0.267617 1.474759 0.823639
v 0.298488 1.233578 0.918650
v 0.309017 0.974759 0.951057
v 0.000000 1.974759 0.000000
v -0.000000 1.940685 0.258819
v 0.000000 1.840785 0.500000
v 0.000000 1.681866 0.707107
v 0.000000 1.474759 0.866026
v 0.000000 1.233578 0.965926
v 0.000000 0.974759 1.000000
v -0.079980 1.940685 0.246152
v -0.154509 1.840785 0.475528
v -0.218508 1.681866 0.672499
v -0.267617 1.474759 0.823639
v -0.298488 1.233578 0.918650
v -0.309017 0.974759 0.951057
v -0.152130 1.940685 0.209389
v -0.293893 1.840785 0.404509
v -0.415627 1.681866 0.572062
v -0.509037 1.474759 0.700630
v -0.567757 1.233578 0.781451
v -0.587785 0.974759 0.809017
v -0.209389 1.940685 0.152130
v -0.404509 1.840785 0.293893
v -0.572062 1.681866 0.415627
v -0.700630 1.474759 0.509037
v -0.781451 1.233578 0.567757
v -0.809017 0.974759 0.587785
v -0.246152 1.940685 0.079979
v -0.475528 1.840785 0.154509
v -0.672499 1.681866 0.218508
v -0.823639 1.474759 0.267617
v -0.918651 1.233578 0.298488
v -0.951057 0.974759 0.309017
v -0.258819 1.940685 -0.000000
v -0.500000 1.840785 0.000000
v -0.707107 1.681866 0.000000
v -0.866026 1.474759 0.000000
v -0.965926 1.233578 -0.000000
v -1.000000 0.974759 0.000000
v -0.246152 1.940685 -0.079980
v -0.475529 1.840785 -0.154509
v -0.672499 1.681866 -0.218508
v -0.823640 1.474759 -0.267617
v -0.918651 1.233578 -0.298488
v -0.951057 0.974759 -0.309017
v -0.209389 1.940685 -0.152130
v -0.404509 1.840785 -0.293893
v -0.572062 1.681866 -0.415627
v -0.700630 1.474759 -0.509037
v -0.781451 1.233578 -0.567757
v -0.809017 0.974759 -0.587786
v -0.152130 1.940685 -0.209389
v -0.293893 1.840785 -0.404509
v -0.415627 1.681866 -0.572062
v -0.509037 1.474759 -0.700630
v -0.567757 1.233578 -0.781451
v -0.587786 0.974759 -0.809018
v -0.079979 1.940685 -0.246152
v -0.154509 1.840785 -0.475529
v -0.218508 1.681866 -0.672499
v -0.267617 1.474759 -0.823640
v -0.298488 1.233578 -0.918651
v -0.309017 0.974759 -0.951057
v -0.000000 1.681866 -0.707107
v 0.000000 1.474759 -0.866026
vn 0.1448 0.3786 -0.9141
vn 0.0605 0.9222 -0.3820
vn 0.1551 0.1289 -0.9794
vn 0.0960 0.7897 -0.6060
vn 0.1247 0.6040 -0.7872
vn 0.0207 0.9912 -0.1305
vn 0.2785 0.7897 -0.5466
vn 0.3618 0.6040 -0.7101
vn 0.0600 0.9912 -0.1177
vn 0.4202 0.3787 -0.8247
vn 0.1756 0.9222 -0.3446
vn 0.4502 0.1289 -0.8836
vn 0.2735 0.9222 -0.2735
vn 0.7012 0.1289 -0.7012
vn 0.4338 0.7897 -0.4338
vn 0.5635 0.6040 -0.5635
vn 0.0934 0.9912 -0.0934
vn 0.6545 0.3787 -0.6545
vn 0.7101 0.6040 -0.3618
vn 0.1177 0.9912 -0.0600
vn 0.8247 0.3787 -0.4202
vn 0.3446 0.9222 -0.1756
vn 0.8836 0.1289 -0.4502
vn 0.5466 0.7897 -0.2785
vn 0.6060 0.7897 -0.0960
vn 0.7872 0.6040 -0.1247
vn 0.1305 0.9912 -0.0207
vn 0.9141 0.3787 -0.1448
vn 0.3820 0.9222 -0.0605
vn 0.9794 0.1289 -0.1551
vn 0.9141 0.3787 0.1448
vn 0.3820 0.9222 0.0605
vn 0.9794 0.1289 0.1551
vn 0.6060 0.7897 0.0960
vn 0.7872 0.6040 0.1247
vn 0.1305 0.9912 0.0207
vn 0.7101 0.6040 0.3618
vn 0.1177 0.9912 0.0600
vn 0.8247 0.3787 0.4202
vn 0.3446 0.9222 0.1756
vn 0.8836 0.1289 0.4502
vn 0.5466 0.7897 0.2785
vn 0.7012 0.1289 0.7012
vn 0.4338 0.7897 0.4338
vn 0.5635 0.6040 0.5635
vn 0.0934 0.9912 0.0934
vn 0.6545 0.3787 0.6545
vn 0.2735 0.9222 0.2735
vn 0.4202 0.3787 0.8247
vn 0.1756 0.9222 0.3446
vn 0.4502 0.1289 0.8836
vn 0.2785 0.7897 0.5466
vn 0.3618 0.6040 0.7101
vn 0.0600 0.9912 0.1177
vn 0.1247 0.6040 0.7872
vn 0.0207 0.9912 0.1305
vn 0.1448 0.3787 0.9141
vn 0.0605 0.9222 0.3820
vn 0.1551 0.1289 0.9794
vn 0.0960 0.7897 0.6060
vn -0.1551 0.1289 0.9794
vn -0.0960 0.7897 0.6060
vn -0.1247 0.6040 0.7872
vn -0.0207 0.9912 0.1305
vn -0.1448 0.3787 0.9141
vn -0.0605 0.9222 0.3820
vn -0.4202 0.3787 0.8247
vn -0.1756 0.9222 0.3446
vn -0.4502 0.1289 0.8836
vn -0.2785 0.7897 0.5466
vn -0.3618 0.6040 0.7101
vn -0.0600 0.9912 0.1177
vn -0.5635 0.6040 0.5635
vn -0.0934 0.9912 0.0934
vn -0.6545 0.3787 0.6545
vn -0.2735 0.9222 0.2735
vn -0.7012 0.1289 0.7012
vn -0.4338 0.7897 0.4338
vn -0.8836 0.1289 0.4502
vn -0.5466 0.7897 0.2785
vn -0.7101 0.6040 0.3618
vn -0.1177 0.9912 0.0600
vn -0.8247 0.3787 0.4202
vn -0.3446 0.9222 0.1756
vn -0.1305 0.9912 0.0207
vn -0.9141 0.3787 0.1448
vn -0.3820 0.9222 0.0605
vn -0.9794 0.1289 0.1551
vn -0.6060 0.7897 0.0960
vn -0.7872 0.6040 0.1247
vn -0.7872 0.6040 -0.1247
vn -0.1305 0.9912 -0.0207
vn -0.9141 0.3787 -0.1448
vn -0.3820 0.9222 -0.0605
vn -0.9794 0.1289 -0.1551
vn -0.6060 0.7897 -0.0960
vn -0.3446 0.9222 -0.1756
vn -0.8836 0.1289 -0.4502
vn -0.5466 0.7897 -0.2785
vn -0.7101 0.6040 -0.3618
vn -0.1177 0.9912 -0.0600
vn -0.8247 0.3787 -0.4202
vn -0.0934 0.9912 -0.0934
vn -0.6545 0.3787 -0.6545
vn -0.2735 0.9222 -0.2735
vn -0.7012 0.1289 -0.7012
vn -0.4338 0.7897 -0.4338
vn -0.5635 0.6040 -0.5635
vn -0.2785 0.7897 -0.5466
vn -0.3618 0.6040 -0.7101
vn -0.0600 0.9912 -0.1177
vn -0.4202 0.3787 -0.8247
vn -0.1756 0.9222 -0.3446
vn -0.4502 0.1289 -0.8836
vn -0.0605 0.9222 -0.3820
vn -0.1551 0.1289 -0.9794
vn -0.0960 0.7897 -0.6060
vn -0.1247 0.6040 -0.7872
vn -0.0207 0.9912 -0.1305
vn -0.1448 0.3787 -0.9141
vn 0.1448 0.3787 -0.9141
vn -0.1448 0.3786 -0.9141
vt 0.655027 0.915774
vt 0.655027 0.630833
vt 0.678709 0.942912
vt 0.678709 0.603695
vt 0.786970 0.995338
vt 0.786970 0.551269
vt 0.827246 0.999172
vt 0.827246 0.547435
vt 0.657429 0.905350
vt 0.683349 0.922773
vt 0.716643 0.937735
vt 0.755044 0.949216
vt 0.795933 0.956433
vt 0.836525 0.958894
vt 0.658691 0.893095
vt 0.685788 0.899098
vt 0.720093 0.904254
vt 0.759269 0.908210
vt 0.800646 0.910697
vt 0.841404 0.911545
vt 0.658691 0.880209
vt 0.685788 0.874205
vt 0.720093 0.869050
vt 0.759269 0.865094
vt 0.800646 0.862607
vt 0.841404 0.861759
vt 0.657429 0.867954
vt 0.683349 0.850531
vt 0.716643 0.835569
vt 0.755044 0.824088
vt 0.795933 0.816871
vt 0.836525 0.814409
vt 0.655027 0.857530
vt 0.335116 0.782293
vt 0.678709 0.830392
vt 0.358798 0.809430
vt 0.710082 0.807088
vt 0.390171 0.832734
vt 0.747008 0.789207
vt 0.427097 0.850616
vt 0.786970 0.777966
vt 0.467059 0.861856
vt 0.827246 0.774132
vt 0.507335 0.865690
vt 0.337518 0.771868
vt 0.363438 0.789291
vt 0.396732 0.804253
vt 0.435133 0.815734
vt 0.476022 0.822951
vt 0.516614 0.825413
vt 0.338780 0.759613
vt 0.365877 0.765617
vt 0.400182 0.770772
vt 0.439358 0.774728
vt 0.480735 0.777215
vt 0.521493 0.778063
vt 0.338780 0.746727
vt 0.365877 0.740724
vt 0.400182 0.735568
vt 0.439358 0.731612
vt 0.480735 0.729125
vt 0.521493 0.728277
vt 0.337518 0.734473
vt 0.363438 0.717049
vt 0.396732 0.702087
vt 0.435133 0.690606
vt 0.476022 0.683389
vt 0.516614 0.680928
vt 0.640650 0.886652
vt 0.320739 0.753170
vt 0.640650 0.433259
vt 0.640650 0.659956
vt 0.335116 0.724048
vt 0.655027 0.462382
vt 0.358798 0.696910
vt 0.678709 0.489519
vt 0.390171 0.673606
vt 0.710082 0.512823
vt 0.427097 0.655725
vt 0.747008 0.530705
vt 0.467059 0.644484
vt 0.786970 0.541945
vt 0.827246 0.545779
vt 0.507335 0.640650
vt 0.657429 0.451957
vt 0.683349 0.469380
vt 0.716644 0.484342
vt 0.755044 0.495823
vt 0.795933 0.503040
vt 0.836525 0.505502
vt 0.658691 0.439702
vt 0.685788 0.445706
vt 0.720093 0.450861
vt 0.759269 0.454817
vt 0.800646 0.457304
vt 0.841404 0.458152
vt 0.658691 0.426816
vt 0.685788 0.420813
vt 0.720093 0.415657
vt 0.759269 0.411701
vt 0.800646 0.409214
vt 0.841404 0.408366
vt 0.657429 0.414562
vt 0.683349 0.397138
vt 0.716644 0.382176
vt 0.755044 0.370695
vt 0.795933 0.363478
vt 0.836525 0.361017
vt 0.655027 0.404137
vt 0.655027 0.689078
vt 0.678709 0.376999
vt 0.678709 0.716216
vt 0.710082 0.353695
vt 0.710082 0.739519
vt 0.747008 0.335814
vt 0.747008 0.757401
vt 0.786970 0.324573
vt 0.786970 0.768642
vt 0.827246 0.772476
vt 0.827246 0.320739
vt 0.657429 0.678653
vt 0.683349 0.696077
vt 0.716644 0.711039
vt 0.755044 0.722519
vt 0.795933 0.729736
vt 0.836525 0.732198
vt 0.658691 0.666398
vt 0.685788 0.672402
vt 0.720093 0.677558
vt 0.759269 0.681514
vt 0.800646 0.684000
vt 0.841404 0.684849
vt 0.658691 0.653513
vt 0.685788 0.647509
vt 0.720093 0.642354
vt 0.759269 0.638398
vt 0.800646 0.635911
vt 0.841404 0.635063
vt 0.657429 0.641258
vt 0.683349 0.623834
vt 0.716644 0.608872
vt 0.755044 0.597392
vt 0.795933 0.590175
vt 0.836525 0.587713
vt 0.710082 0.966216
vt 0.710082 0.580392
vt 0.747008 0.984097
vt 0.747008 0.562510
s 0
g Sphere_Test_Baked_Texture
usemtl Test_Baked_Texture
f 129/171/7 17/37/7 11/29/7
f 10/27/8 13/33/8 14/34/8
f 11/29/9 18/38/9 12/31/9
f 10/27/10 15/35/10 128/169/10
f 128/169/11 16/36/11 129/171/11
f 9/25/12 67/93/12 13/33/12
f 14/34/13 21/41/13 15/35/13
f 15/35/14 22/42/14 16/36/14
f 13/33/15 67/93/15 19/39/15
f 17/37/16 22/42/16 23/43/16
f 13/33/17 20/40/17 14/34/17
f 18/38/18 23/43/18 24/44/18
f 19/39/19 26/46/19 20/40/19
f 23/43/20 30/50/20 24/44/20
f 20/40/21 27/47/21 21/41/21
f 21/41/22 28/48/22 22/42/22
f 19/39/23 67/93/23 25/45/23
f 22/42/24 29/49/24 23/43/24
f 27/47/25 34/54/25 28/48/25
f 25/45/26 67/93/26 31/51/26
f 28/48/27 35/55/27 29/49/27
f 25/45/28 32/52/28 26/46/28
f 29/49/29 36/56/29 30/50/29
f 26/46/30 33/53/30 27/47/30
f 32/52/31 39/61/31 33/53/31
f 33/53/32 40/63/32 34/54/32
f 31/51/33 67/93/33 37/57/33
f 35/55/34 40/63/34 41/65/34
f 31/51/35 38/59/35 32/52/35
f 36/56/36 41/65/36 42/67/36
f 40/64/37 47/73/37 41/66/37
f 37/58/38 44/70/38 38/60/38
f 41/66/39 48/74/39 42/68/39
f 38/60/40 45/71/40 39/62/40
f 39/62/41 46/72/41 40/64/41
f 37/58/42 67/94/42 43/69/42
f 45/71/43 52/78/43 46/72/43
f 43/69/44 67/94/44 49/75/44
f 47/73/45 52/78/45 53/79/45
f 43/69/46 50/76/46 44/70/46
f 47/73/47 54/80/47 48/74/47
f 44/70/48 51/77/48 45/71/48
f 54/80/49 59/85/49 60/86/49
f 50/76/50 57/83/50 51/77/50
f 51/77/51 58/84/51 52/78/51
f 49/75/52 67/94/52 55/81/52
f 53/79/53 58/84/53 59/85/53
f 49/75/54 56/82/54 50/76/54
f 59/85/55 64/90/55 65/91/55
f 55/81/56 62/88/56 56/82/56
f 60/86/57 65/91/57 66/92/57
f 56/82/58 63/89/58 57/83/58
f 57/83/59 64/90/59 58/84/59
f 55/81/60 67/94/60 61/87/60
f 63/89/61 71/103/61 64/90/61
f 61/87/62 67/94/62 68/97/62
f 65/91/63 71/103/63 72/105/63
f 61/87/64 69/99/64 62/88/64
f 65/91/65 73/108/65 66/92/65
f 62/88/66 70/101/66 63/89/66
f 72/106/67 79/114/67 73/107/67
f 69/100/68 76/111/68 70/102/68
f 70/102/69 77/112/69 71/104/69
f 68/98/70 67/95/70 74/109/70
f 71/104/71 78/113/71 72/106/71
f 68/98/72 75/110/72 69/100/72
f 78/113/73 83/118/73 84/119/73
f 74/109/74 81/116/74 75/110/74
f 78/113/75 85/120/75 79/114/75
f 76/111/76 81/116/76 82/117/76
f 77/112/77 82/117/77 83/118/77
f 74/109/78 67/95/78 80/115/78
f 82/117/79 89/124/79 83/118/79
f 80/115/80 67/95/80 86/121/80
f 84/119/81 89/124/81 90/125/81
f 80/115/82 87/122/82 81/116/82
f 84/119/83 91/126/83 85/120/83
f 81/116/84 88/123/84 82/117/84
f 90/125/85 97/132/85 91/126/85
f 87/122/86 94/129/86 88/123/86
f 88/123/87 95/130/87 89/124/87
f 86/121/88 67/95/88 92/127/88
f 90/125/89 95/130/89 96/131/89
f 86/121/90 93/128/90 87/122/90
f 92/127/91 67/95/91 98/133/91
f 96/131/92 101/139/92 102/141/92
f 92/127/93 99/135/93 93/128/93
f 96/131/94 103/144/94 97/132/94
f 93/128/95 100/137/95 94/129/95
f 95/130/96 100/137/96 101/139/96
f 101/140/97 106/147/97 107/148/97
f 98/134/98 67/96/98 104/145/98
f 102/142/99 107/148/99 108/149/99
f 98/134/100 105/146/100 99/136/100
f 102/142/101 109/150/101 103/143/101
f 99/136/102 106/147/102 100/138/102
f 104/145/103 111/152/103 105/146/103
f 108/149/104 115/156/104 109/150/104
f 105/146/105 112/153/105 106/147/105
f 107/148/106 112/153/106 113/154/106
f 104/145/107 67/96/107 110/151/107
f 108/149/108 113/154/108 114/155/108
f 110/151/109 67/96/109 116/157/109
f 113/154/110 120/161/110 114/155/110
f 110/151/111 117/158/111 111/152/111
f 114/155/112 121/162/112 115/156/112
f 111/152/113 118/159/113 112/153/113
f 113/154/114 118/159/114 119/160/114
f 117/158/115 124/165/115 118/159/115
f 119/160/116 124/165/116 125/166/116
f 116/157/117 67/96/117 122/163/117
f 119/160/118 126/167/118 120/161/118
f 116/157/119 123/164/119 117/158/119
f 120/161/120 127/168/120 121/162/120
f 122/163/121 10/28/121 123/164/121
f 126/167/122 12/32/122 127/168/122
f 123/164/123 128/170/123 124/165/123
f 125/166/124 128/170/124 129/172/124
f 122/163/125 67/96/125 9/26/125
f 125/166/126 11/30/126 126/167/126
f 129/171/127 16/36/127 17/37/127
f 10/27/8 9/25/8 13/33/8
f 11/29/9 17/37/9 18/38/9
f 10/27/10 14/34/10 15/35/10
f 128/169/11 15/35/11 16/36/11
f 14/34/13 20/40/13 21/41/13
f 15/35/14 21/41/14 22/42/14
f 17/37/16 16/36/16 22/42/16
f 13/33/17 19/39/17 20/40/17
f 18/38/18 17/37/18 23/43/18
f 19/39/19 25/45/19 26/46/19
f 23/43/20 29/49/20 30/50/20
f 20/40/21 26/46/21 27/47/21
f 21/41/22 27/47/22 28/48/22
f 22/42/24 28/48/24 29/49/24
f 27/47/25 33/53/25 34/54/25
f 28/48/27 34/54/27 35/55/27
f 25/45/28 31/51/28 32/52/28
f 29/49/29 35/55/29 36/56/29
f 26/46/30 32/52/30 33/53/30
f 32/52/31 38/59/31 39/61/31
f 33/53/32 39/61/32 40/63/32
f 35/55/34 34/54/34 40/63/34
f 31/51/35 37/57/35 38/59/35
f 36/56/36 35/55/36 41/65/36
f 40/64/37 46/72/37 47/73/37
f 37/58/38 43/69/38 44/70/38
f 41/66/39 47/73/39 48/74/39
f 38/60/40 44/70/40 45/71/40
f 39/62/41 45/71/41 46/72/41
f 45/71/43 51/77/43 52/78/43
f 47/73/45 46/72/45 52/78/45
f 43/69/46 49/75/46 50/76/46
f 47/73/47 53/79/47 54/80/47
f 44/70/48 50/76/48 51/77/48
f 54/80/49 53/79/49 59/85/49
f 50/76/50 56/82/50 57/83/50
f 51/77/51 57/83/51 58/84/51
f 53/79/53 52/78/53 58/84/53
f 49/75/54 55/81/54 56/82/54
f 59/85/55 58/84/55 64/90/55
f 55/81/56 61/87/56 62/88/56
f 60/86/57 59/85/57 65/91/57
f 56/82/58 62/88/58 63/89/58
f 57/83/59 63/89/59 64/90/59
f 63/89/61 70/101/61 71/103/61
f 65/91/63 64/90/63 71/103/63
f 61/87/64 68/97/64 69/99/64
f 65/91/65 72/105/65 73/108/65
f 62/88/66 69/99/66 70/101/66
f 72/106/67 78/113/67 79/114/67
f 69/100/68 75/110/68 76/111/68
f 70/102/69 76/111/69 77/112/69
f 71/104/71 77/112/71 78/113/71
f 68/98/72 74/109/72 75/110/72
f 78/113/73 77/112/73 83/118/73
f 74/109/74 80/115/74 81/116/74
f 78/113/75 84/119/75 85/120/75
f 76/111/76 75/110/76 81/116/76
f 77/112/77 76/111/77 82/117/77
f 82/117/79 88/123/79 89/124/79
f 84/119/81 83/118/81 89/124/81
f 80/115/82 86/121/82 87/122/82
f 84/119/83 90/125/83 91/126/83
f 81/116/84 87/122/84 88/123/84
f 90/125/85 96/131/85 97/132/85
f 87/122/86 93/128/86 94/129/86
f 88/123/87 94/129/87 95/130/87
f 90/125/89 89/124/89 95/130/89
f 86/121/90 92/127/90 93/128/90
f 96/131/92 95/130/92 101/139/92
f 92/127/93 98/133/93 99/135/93
f 96/131/94 102/141/94 103/144/94
f 93/128/95 99/135/95 100/137/95
f 95/130/96 94/129/96 100/137/96
f 101/140/97 100/138/97 106/147/97
f 102/142/99 101/140/99 107/148/99
f 98/134/100 104/145/100 105/146/100
f 102/142/101 108/149/101 109/150/101
f 99/136/102 105/146/102 106/147/102
f 104/145/103 110/151/103 111/152/103
f 108/149/104 114/155/104 115/156/104
f 105/146/105 111/152/105 112/153/105
f 107/148/106 106/147/106 112/153/106
f 108/149/108 107/148/108 113/154/108
f 113/154/110 119/160/110 120/161/110
f 110/151/111 116/157/111 117/158/111
f 114/155/112 120/161/112 121/162/112
f 111/152/113 117/158/113 118/159/113
f 113/154/114 112/153/114 118/159/114
f 117/158/115 123/164/115 124/165/115
f 119/160/116 118/159/116 124/165/116
f 119/160/118 125/166/118 126/167/118
f 116/157/119 122/163/119 123/164/119
f 120/161/120 126/167/120 127/168/120
f 122/163/121 9/26/121 10/28/121
f 126/167/122 11/30/122 12/32/122
f 123/164/123 10/28/123 128/170/123
f 125/166/124 124/165/124 128/170/124
f 125/166/128 129/172/128 11/30/128
